/* XPM */
static char *_7b7b64e64724493939876356738192c[] = {
/* columns rows colors chars-per-pixel */
"16 16 177 2 ",
"   c #FEFEFE",
".  c gray100",
"X  c #FCFDFC",
"o  c #F7FAF8",
"O  c #E1EEE5",
"+  c #E2EFE6",
"@  c #F8FBF9",
"#  c #FEFFFF",
"$  c #FFFEFE",
"%  c #DBECDF",
"&  c #6FB582",
"*  c #289445",
"=  c #148C34",
"-  c #148B35",
";  c #2A9346",
":  c #74B585",
">  c #9FCEAC",
",  c #098728",
"<  c #00800C",
"1  c #008914",
"2  c #008E1D",
"3  c #008917",
"4  c #008412",
"5  c #007E13",
"6  c #0C822B",
"7  c #AAD2B6",
"8  c #A6D2B3",
"9  c #008119",
"0  c #3BA558",
"q  c #6FB281",
"w  c #83B992",
"e  c #A0C7AB",
"r  c #67AD7A",
"t  c #088F2C",
"y  c #008A20",
"u  c #017A1C",
"i  c #B3D7BE",
"p  c #EAF4ED",
"a  c #1B8F35",
"s  c #008E1C",
"d  c #65AE7A",
"f  c #8CAE95",
"g  c #7DAC8A",
"h  c #60A774",
"j  c #75B988",
"k  c #FFFCFF",
"l  c #74AD84",
"z  c #009220",
"x  c #00861C",
"c  c #238B3A",
"v  c #F1F7F4",
"b  c #91C79E",
"n  c #18A03D",
"m  c #ABC1B1",
"M  c #229A41",
"N  c #E9EBEA",
"B  c #A6CDAE",
"V  c #0AA224",
"C  c #FDF5FB",
"Z  c #98C0A1",
"A  c #009620",
"S  c #209E44",
"D  c #007211",
"F  c #A3CDAD",
"G  c #50AA66",
"H  c #008F1C",
"J  c #00A32B",
"K  c #87BD96",
"L  c #63A977",
"P  c #EBEEEC",
"I  c #92C4A0",
"U  c #68C481",
"Y  c #FBE4F2",
"T  c #279A4C",
"R  c #58C95D",
"E  c #8FCD53",
"W  c #00470B",
"Q  c #609C6F",
"!  c #38A255",
"~  c #00921F",
"^  c #04AD32",
"/  c #00B424",
"(  c #3ABA5E",
")  c #FDF1FA",
"_  c #91C19E",
"`  c #6EC182",
"'  c #1EB14C",
"]  c #50CD5F",
"[  c #93DC46",
"{  c #1F6F15",
"}  c #00590E",
"|  c #469F5D",
" . c #3FA55A",
".. c #00921E",
"X. c #06AC34",
"o. c #00BD28",
"O. c #60CC7D",
"+. c #FFEDFF",
"@. c #33C355",
"#. c #00DF23",
"$. c #4BDD66",
"%. c #8ADA4A",
"&. c #177516",
"*. c #006E24",
"=. c #008718",
"-. c #4FA565",
";. c #69B67D",
":. c #008B18",
">. c #07A934",
",. c #00B024",
"<. c #97CCA6",
"1. c #FEE3F6",
"2. c #18BA46",
"3. c #40DE61",
"4. c #9DED51",
"5. c #3C9527",
"6. c #00671F",
"7. c #06A12E",
"8. c #007E15",
"9. c #80BB8E",
"0. c #BFDFC8",
"q. c #00881D",
"w. c #039F2E",
"e. c #00AC2D",
"r. c #2FA950",
"t. c #32AD52",
"y. c #00B632",
"u. c #76DD63",
"i. c #81E41E",
"p. c #3E8D2F",
"a. c #00681E",
"s. c #029228",
"d. c #017F1E",
"f. c #CCE3D2",
"g. c #FDFEFD",
"h. c #56AE6C",
"j. c #008816",
"k. c #06A432",
"l. c #02AC2A",
"z. c #00B121",
"x. c #38C958",
"c. c #7CC95A",
"v. c #1E751C",
"b. c #00721F",
"n. c #06982D",
"m. c #007E12",
"M. c #63AE76",
"N. c #FDFEFE",
"B. c #EEF6F0",
"V. c #38A154",
"C. c #008715",
"Z. c #009826",
"A. c #31B051",
"S. c #6AB365",
"D. c #0C6C1D",
"F. c #008326",
"G. c #039A29",
"H. c #007F12",
"J. c #43A05C",
"K. c #F5F9F6",
"L. c #F2F8F3",
"P. c #6CB981",
"I. c #0C8C2E",
"U. c #1B9036",
"Y. c #016E0E",
"T. c #007E14",
"R. c #008A1A",
"E. c #088729",
"W. c #76BA88",
"Q. c #DEEEE2",
"!. c #96CBA6",
"~. c #7BC18E",
"^. c #7EC18F",
"/. c #E1EFE5",
"(. c #FCFDFD",
"). c #FBFDFC",
"_. c #FEFEFF",
/* pixels */
"  .   X   . o O + @ .   X   .   ",
"# $ X . % & * = - ; : O . X .   ",
". X . > , < 1 2 3 4 5 6 7 . X . ",
"X . 8 9 2 0 q w e r t y u i . X ",
". p a s d f g h j k l z x c v . ",
". b 4 n m M N B V C Z A S D F . ",
". G H J K L P I U Y T R E W Q . ",
". ! ~ ^ / ( ) _ ` ' ] [ { } | . ",
".  ...X.o.O.+.@.#.$.%.&.*.=.-.. ",
". ;.:.>.,.<.1.2.3.4.5.6.7.8.9.. ",
". 0.q.w.e.r.t.y.u.i.p.a.s.d.f.. ",
"g.. h.j.k.l.z.x.c.v.b.n.m.M.. X ",
"N.. B.V.C.Z.A.S.D.F.G.H.J.K..   ",
". g.. L.P.I.U.Y.T.R.E.W.K.. N.. ",
"  . g.g.. Q.!.~.^.> /.. (.N..   ",
".   . g.).. _.    .   ).N..   . "
};
