/* XPM */
static char *_73e8655e1834d609336a257a7248ec4[] = {
/* columns rows colors chars-per-pixel */
"32 32 185 2 ",
"   c #004A0F",
".  c #00530E",
"X  c #004C12",
"o  c #004410",
"O  c #005416",
"+  c #005B16",
"@  c #005418",
"#  c #045B1B",
"$  c #0E5A1C",
"%  c #01621A",
"&  c #016A1D",
"*  c #006E11",
"=  c #007513",
"-  c #007A16",
";  c #00741B",
":  c #007C1B",
">  c #157D1E",
",  c #0E5D21",
"<  c #1C5F2A",
"1  c #0B6221",
"2  c #166A29",
"3  c #027E23",
"4  c #0D7C2A",
"5  c #157B30",
"6  c #00831C",
"7  c #008C1D",
"8  c #008117",
"9  c #00931F",
"0  c #009810",
"q  c #00860A",
"w  c #00AB1E",
"e  c #018424",
"r  c #018C25",
"t  c #0D842B",
"y  c #038D29",
"u  c #0B882B",
"i  c #108C2F",
"p  c #009325",
"a  c #009A25",
"s  c #02932A",
"d  c #009B2A",
"f  c #0F8E31",
"g  c #148532",
"h  c #198A35",
"j  c #1C8C3B",
"k  c #128D32",
"l  c #0C9832",
"z  c #1C923B",
"x  c #129935",
"c  c #2F8B2B",
"v  c #00A424",
"b  c #00AB25",
"n  c #01A32D",
"m  c #00AC2D",
"M  c #00BB2C",
"N  c #00BA29",
"B  c #01AD31",
"V  c #07A933",
"C  c #14AD3E",
"Z  c #01B332",
"A  c #01B933",
"S  c #0BB63A",
"D  c #5BB327",
"F  c #4BAB22",
"G  c #61B229",
"H  c #70B732",
"J  c #00C71D",
"K  c #00C22F",
"L  c #00CA2D",
"P  c #00D42F",
"I  c #01C435",
"U  c #02C837",
"Y  c #00DB33",
"T  c #00D735",
"R  c #69DF0F",
"E  c #7BDF19",
"W  c #75D80F",
"Q  c #77E418",
"!  c #70CE27",
"~  c #2B8B45",
"^  c #238F41",
"/  c #249242",
"(  c #2B9147",
")  c #2D984A",
"_  c #31944B",
"`  c #3A9251",
"'  c #359D52",
"]  c #3D9D58",
"[  c #3A9D55",
"{  c #3A8A50",
"}  c #1FBB49",
"|  c #21AA47",
" . c #2CAD4F",
".. c #38B75A",
"X. c #408E55",
"o. c #46955A",
"O. c #599A51",
"+. c #47A55D",
"@. c #5F9B71",
"#. c #629571",
"$. c #4BAC64",
"%. c #4AA563",
"&. c #55AB6B",
"*. c #56A76A",
"=. c #5BA871",
"-. c #5BB374",
";. c #73BE6D",
":. c #68A779",
">. c #72A67F",
",. c #6AB47E",
"<. c #64B37A",
"1. c #6DB456",
"2. c #30CE5D",
"3. c #04E942",
"4. c #02F643",
"5. c #3ACF63",
"6. c #37D260",
"7. c #4CCC70",
"8. c #4AD070",
"9. c #5BC778",
"0. c #6FD07C",
"q. c #62C37A",
"w. c #83EC26",
"e. c #87EC33",
"r. c #90E93B",
"t. c #80C15E",
"y. c #94E84E",
"u. c #A0EC53",
"i. c #94D06F",
"p. c #9BDE77",
"a. c #ADE274",
"s. c #79A985",
"d. c #78B989",
"f. c #6FC080",
"g. c #7EC28B",
"h. c #7FC191",
"j. c #85A68E",
"k. c #86BA94",
"l. c #94B59D",
"z. c #8AA891",
"x. c #99B9A2",
"c. c #AEBAB1",
"v. c #A7B6AB",
"b. c #8BC59A",
"n. c #9AD998",
"m. c #B6E689",
"M. c #B6EA99",
"N. c #9CCDA9",
"B. c #98C7A6",
"V. c #A0CCAC",
"C. c #A8D3B4",
"Z. c #B1D9BD",
"A. c #A7C9B0",
"S. c #BBDDC4",
"D. c #C6C4C5",
"F. c #CBCECB",
"G. c #C5D8CB",
"H. c #DBCFD7",
"J. c #DCDFDD",
"K. c #D5D8D6",
"L. c #C5E1CC",
"P. c #CDE4D3",
"I. c #D1E6D7",
"U. c #D7EADC",
"Y. c #D9ECDF",
"T. c #D9E1DC",
"R. c #E7DBE3",
"E. c #DDEDE1",
"W. c #DFE3E0",
"Q. c #E2E1E2",
"!. c #EAE0E7",
"~. c #EDE8EC",
"^. c #F1E4ED",
"/. c #F1ECEF",
"(. c #E1F0E6",
"). c #ECF5EE",
"_. c #F9EDF6",
"`. c #FAEFF7",
"'. c #EDF5F0",
"]. c #F2F6F3",
"[. c #F9F0F6",
"{. c #F5F9F6",
"}. c #F7F9F8",
"|. c #FEFEFE",
" X c #FDF2FC",
/* pixels */
"|.|.|.|.|.|.|.|.|.|.|.}.|.|.|.|.|.|.|.|.|.|.|.|.|.|.|.|.|.|.|.|.",
"|.|.|.|.|.|.|.|.|.|.|.|.|.].U.I.I.E.}.|.|.|.}.|.|.|.|.|.|.|.|.|.",
"|.|.|.|.|.|.|.|.|.|.].N.*.^ g u t g / =.C.}.|.|.|.|.|.|.|.|.|.|.",
"|.|.|.|.|.|.|.|.).b.^ - - : e e e e : = - ( B.}.|.|.|.|.|.|.|.|.",
"|.|.|.|.|.|.|.L.) - 6 y y y s s s y y e e : ; ] U.|.}.|.|.|.|.|.",
"|.|.|.|.|.|.C.t : y s s s a 9 p 9 p a s y y e = g L.|.|.|.|.|.|.",
"|.|.|.|.|.Z.t 6 y s 9 7 y / [ %.%.` j 6 s s e e - g P.|.|.|.|.|.",
"|.|.|.|.U.h 6 y d 9 h k.K.!.!./.`./.J.x.5 p a r e - ( '.|.|.|.|.",
"|.|.|.|.*.6 y a s :.R.F.>.X.^ ( @.T.}.|.c.3 a p y e * ,.|.|.|.|.",
"|.|.|.S.e r s 9 @.^.#.4 ` s.l.o.0 :.[.]./.{ a l s e e 4 P.|.|.|.",
"|.|.|.*.8 s d s F.z.q $._.}.|.j.w  .^.]./.o.a n s y y - s.|.|.|.",
"|.|.E.u r s a l H.x.s | J.].[.#.J ..^.}.R.~ v n $.f ; * / ].|.|.",
"}.|.C.6 y d n a l.|.l.z W.{.~._ J <._.|.v.7 b ,.a.t.<   & I.|.|.",
"|.|.g.6 s d n m x x.:.) ~.}.Q._ ..J.|.D.^ w q.m.E H < o . V.|.|.",
"|.|.<.6 s d n B A m v -._.].Q.D.H.F.j.z w 9.m.E G $   # * k.|.}.",
"|.|.-.6 s d m B A U L b.[.|.l.l C Z N L 7.M.E G , X % y = d.|.|.",
"|.|.<.6 s d m B A I A A.|.[.>.P 4.3.Y 8.M.w.D 1 @ & y r = k.|.|.",
"|.|.g.6 s d n m Z I S F.{.[.&.T 3.Y 5.M.w.D 1 + ; s s e = V.|.|.",
"|.|.C.7 s d n m Z K | Q.]./.] T Y 2.M.e.F % % 6 n d y e 3 P.|.|.",
"|.|.E.u y s n n B N $. X|.R.' P 6.M.e.Q 1.2 % y d s y : ( ].|.|.",
"|.|.|.$.6 s d n B M ) j.:.` V U 0.y.R Q e.O.O % y y y - d.|.|.|.",
"|.|.|.S.e s d n n B m a w K I K } p.Q ! c + + 3 s r e t P.|.|.|.",
"|.|.|.|.&.6 s d n m B A A S M S n.u.D 2 . * y d p r = ,.|.|.|.|.",
"|.|.|.|.Y.z 7 s s d n m B m V n.a.c % + 6 l d y y - ( ).|.|.|.|.",
"|.|.|.|.|.S.u e s d d n n n n.i.> @ & y d a y y : h P.|.|.|.|.|.",
"|.|.|.|.|.|.Z.f 6 s s d a k.;.; @ ; a d s s y : h L.|.|.|.|.|.|.",
"|.|.|.|.|.|.|.L.' 8 7 y *.+.- & e s s y r : - +.U.|.|.|.|.|.|.|.",
"|.|.|.|.|.|.|.|.{.b.z t u q ; 6 r e 6 6 6 ^ N.{.|.|.|.|.|.|.|.|.",
"|.|.|.|.|.|.|.|.|.|.).N.&.' z f k z [ <.C.].|.|.|.|.|.|.|.|.|.|.",
"|.|.|.|.|.|.|.|.|.|.|.|.|.{.E.U.U.(.{.|.|.|.|.|.|.|.|.|.|.|.|.|.",
"|.|.|.|.|.|.|.|.|.|.|.|.|.|.|.|.|.|.|.|.|.|.|.|.|.|.|.|.|.|.|.|.",
"|.|.|.|.|.|.|.|.|.|.|.|.|.|.|.|.|.|.|.|.|.|.|.|.|.|.|.|.|.|.|.|."
};
