/* XPM */
static char *_572d73eee884df6ca183b3625f523f1[] = {
/* columns rows colors chars-per-pixel */
"64 64 203 2 ",
"   c #004C13",
".  c #094F19",
"X  c #005316",
"o  c #035619",
"O  c #015C19",
"+  c #025917",
"@  c #00631A",
"#  c #006B1D",
"$  c #0A641E",
"%  c #00731E",
"&  c #00781F",
"*  c #105E24",
"=  c #0D6925",
"-  c #166926",
";  c #027521",
":  c #0A7427",
">  c #017C22",
",  c #0A7E2A",
"<  c #087D27",
"1  c #15762B",
"2  c #187832",
"3  c #1E6833",
"4  c #286F2C",
"5  c #267428",
"6  c #347C2A",
"7  c #236F37",
"8  c #25753B",
"9  c #2C7D43",
"0  c #397949",
"q  c #366F46",
"w  c #487A55",
"e  c #4A7355",
"r  c #008424",
"t  c #008B25",
"y  c #0B832C",
"u  c #028D29",
"i  c #0A8A2D",
"p  c #068629",
"a  c #009127",
"s  c #009429",
"d  c #009B2A",
"f  c #0A932E",
"g  c #148C35",
"h  c #1B8C3A",
"j  c #198837",
"k  c #0D9532",
"l  c #1C933B",
"z  c #129935",
"x  c #0F8C2E",
"c  c #22893E",
"v  c #3A8C31",
"b  c #2B933A",
"n  c #00A32D",
"m  c #00AA2F",
"M  c #00B22F",
"N  c #05A330",
"B  c #00AC30",
"V  c #08A334",
"C  c #00B331",
"Z  c #00BC33",
"A  c #0CB83C",
"S  c #1EA53F",
"D  c #57A738",
"F  c #69BC36",
"G  c #418C31",
"H  c #00C336",
"J  c #00C937",
"K  c #01C739",
"L  c #00CC39",
"P  c #0DC73E",
"I  c #00D43A",
"U  c #00DB3D",
"Y  c #00E33D",
"T  c #74D619",
"R  c #75DE1B",
"E  c #75D318",
"W  c #76CE1A",
"Q  c #74E21B",
"!  c #72C62D",
"~  c #78D726",
"^  c #6FC234",
"/  c #78C735",
"(  c #6EC22F",
")  c #76E222",
"_  c #7BE727",
"`  c #2A8B44",
"'  c #2A9347",
"]  c #299648",
"[  c #329A4D",
"{  c #3B9B55",
"}  c #379852",
"|  c #38854C",
" . c #1DB445",
".. c #27B34B",
"X. c #3BA257",
"o. c #2DBD51",
"O. c #33AD4E",
"+. c #488759",
"@. c #439D5B",
"#. c #4A874D",
"$. c #47AB5B",
"%. c #71B552",
"&. c #578764",
"*. c #539366",
"=. c #62896C",
"-. c #748E7B",
";. c #699777",
":. c #6D9177",
">. c #4BA465",
",. c #46AA62",
"<. c #54A76A",
"1. c #4BB463",
"2. c #5CAE72",
"3. c #65A677",
"4. c #6AB37D",
"5. c #67B37A",
"6. c #6DA777",
"7. c #12CA42",
"8. c #28C550",
"9. c #00E440",
"0. c #00EB41",
"q. c #00F042",
"w. c #48C162",
"e. c #6DCC76",
"r. c #83DE32",
"t. c #81D92F",
"y. c #85E237",
"u. c #80827F",
"i. c #8ED54F",
"p. c #8EE946",
"a. c #97E759",
"s. c #93E34E",
"d. c #9EED61",
"f. c #A4EB6A",
"g. c #AFE47B",
"h. c #7A9883",
"j. c #7BA687",
"k. c #6FB582",
"l. c #76B988",
"z. c #7FBC90",
"x. c #86968A",
"c. c #8F9392",
"v. c #85A88F",
"b. c #81BC8B",
"n. c #8BA892",
"m. c #86B895",
"M. c #96AD9C",
"N. c #9EB0A3",
"B. c #A8ACA8",
"V. c #A9B8AD",
"C. c #B5BDB7",
"Z. c #8AD18B",
"A. c #86C297",
"S. c #94C69C",
"D. c #86D493",
"F. c #95CD91",
"G. c #ACD790",
"H. c #BDEF93",
"J. c #B6EB88",
"K. c #97C9A5",
"L. c #A2D2AA",
"P. c #A8C9B2",
"I. c #BCC3BE",
"U. c #AAD4B5",
"Y. c #B4DBB9",
"T. c #B0DBAE",
"R. c #B9E3B7",
"E. c #AAE0AE",
"W. c #C0F09A",
"Q. c #C9F2A7",
"!. c #CDF1B7",
"~. c #BEC8C0",
"^. c #BDDDC6",
"/. c #BFDFC8",
"(. c #C6C9C7",
"). c #C5D6CB",
"_. c #D3D5D4",
"`. c #D5D9D5",
"'. c #DCDEDC",
"]. c #D7D9D8",
"[. c #CDD8D0",
"{. c #C4E2CC",
"}. c #CAE6C6",
"|. c #CCE5D2",
" X c #DEE1DE",
".X c #D5EADB",
"XX c #D4E8DA",
"oX c #D6F1C5",
"OX c #E1E2DF",
"+X c #DEEBE2",
"@X c #E3E4E3",
"#X c #E3EDE6",
"$X c #ECECEB",
"%X c #E8E9E7",
"&X c #E6F1E9",
"*X c #EBF4ED",
"=X c #E3F0E6",
"-X c #F1F1EF",
";X c #EFF7F1",
":X c #F2F3F2",
">X c #F4F9F5",
",X c #FFFFFF",
"<X c #F7FBFA",
/* pixels */
",X,X,X,X,X,X,X,X,X,X,X,X,X,X,X,X,X,X,X,X,X,X,X,X,X,X,X,X,X,X,X,X,X,X,X,X,X,X,X,X,X,X,X,X,X,X,X,X,X,X,X,X,X,X,X,X,X,X,X,X,X,X,X,X",
",X,X,X,X,X,X,X,X,X,X,X,X,X,X,X,X,X,X,X,X,X,X,X,X,X,X,X,X,X,X,X,X,X,X,X,X,X,X,X,X,X,X,X,X,X,X,X,X,X,X,X,X,X,X,X,X,X,X,X,X,X,X,X,X",
",X,X,X,X,X,X,X,X,X,X,X,X,X,X,X,X,X,X<X,X,X,X,X,X,X,X,X,X,X,X,X,X,X,X,X,X,X,X,X,X,X,X,X,X,X,X,X,X,X,X,X,X,X,X,X,X,X,X,X,X,X,X,X,X",
",X,X,X,X,X,X,X,X,X,X,X,X,X,X,X,X,X,X,X,X,X,X,X,X,X,X,X*X|.^.Y.U.U.^.^.XX:X,X,X<X,X,X,X,X,X,X,X,X,X,X,X,X,X,X,X,X,X,X,X,X,X,X,X,X",
",X,X,X,X,X,X,X,X,X,X,X,X,X,X,X,X,X,X,X,X<X,X,X>X^.l.@.' c h j j j j j ` ' <.m.|.,X,X,X,X,X,X,X,X,X,X,X,X,X,X,X,X,X,X,X,X,X,X,X,X",
",X,X,X,X,X,X,X,X,X,X,X,X,X,X,X,X,X,X,X<X,X#Xl.j > > r > r r r r r > r > > > > > ` S.&X<X,X,X,X,X,X,X,X,X,X,X,X,X,X,X,X,X,X,X,X,X",
",X,X,X,X,X,X,X,X,X,X,X,X,X,X,X,X,X<X*X^.2., > r r r r r r r r r r r r r r > > r > > j l.|.>X,X,X,X,X,X,X,X,X,X,X,X,X,X,X,X,X,X,X",
",X,X,X,X,X,X,X,X,X,X,X,X,X,X,X,X<X{.5.g > r r r r r r t r t t r t r t r r r r r > > > > c m.XX<X,X,X,X,X,X,X,X,X,X,X,X,X,X,X,X,X",
",X,X,X,X,X,X,X,X,X,X,X,X,X,X,X;Xm.] r r r r r t t t t t u t s u t t u t t r t r r r > > > > @.U.>X,X,X,X,X,X,X,X,X,X,X,X,X,X,X,X",
",X,X,X,X,X,X,X,X,X,X,X,X,X,X+X>.y r r r t t t a t t s s s s s s a s a a s t u t r t r r r > > y l.,X,X,X,X,X,X,X,X,X,X,X,X,X,X,X",
",X,X,X,X,X,X,X,X,X,X,X,X,X|.[ > r t t t t t a a s s s s s d s s s s s s s s s t u t t r r > > > > >.:X,X,X,X,X,X,X,X,X,X,X,X,X,X",
",X,X,X,X,X,X,X,X,X,X,X,X{.{ > r r r t u t s s s s d d d d d s N d s d d s s s s s t t t r t r > > ; @..X,X,X,X,X,X,X,X,X,X,X,X,X",
",X,X,X,X,X,X,X,X,X,X,X|.[ r r r t t a s a s d s d d d d s u u f i i t t s a s d s s a t t t r r > > < <.+X,X,X,X,X,X,X,X,X,X,X,X",
",X,X,X,X,X,X,X,X,X,XXX[ r r t t a t a s s d d d s : ` +.*.j.j.M.m.v.j.&.+.2 > t s s a a a t t r > r > , 4.;X,X<X,X,X,X,X,X,X,X,X",
",X,X,X,X,X,X,X,X,X*X<.r r t t t s s s d d s , w n.~.`. XOX@X$X$X*X$X%X X`.).x.7 & t s s a a t t r r > > , m.,X,X,X,X,X,X,X,X,X,X",
",X,X,X,X,X,X,X,X,Xb.y r t t t a s d d s y e I.$X:X:X-X:X:X$X-X-X:X:X:X:X:X:X;X'.e : t d s s a t u r r > > < |.,X,X,X,X,X,X,X,X,X",
",X,X,X,X,X,X,X<X^.] r r t t a s d s k +.V.-X:X%X`.~.N.h.&.e +.=.n.[.-X:X:X:X:X:XOXw & s d a a a u t r r > > ` &X,X,X,X,X,X,X,X,X",
",X,X,X,X,X,X,X*X5.p r t t s a d d g ;._.:X%XV.h.0 = < r s s s s r 8 N.:X:X:X:X:X-XC.7 t d d d a t t r r r > > m.<X,X,X,X,X,X,X,X",
",X,X,X,X,X,X,X^.x r t t a s d d f ;.'.-X(.=.7 : u i , } *.*.+.f n N c (.:X:X:X:X>X`.&.t d d s s s u t r r > > ' |.,X,X,X,X,X,X,X",
",X,X,X,X,X,X,X>.r t t t s s d d 8 ].:X(.q : u j =.V.[.].+X'.[.= n Z N x.:X:X:X:X:X%X-.< d n d d a a t t r > > > b.<X,X,X,X,X,X,X",
",X,X,X,X,X<X.Xr r t t s s d d s x.:XOXw ; n l B.:X:X:X:X:X:X:X  n H Z &.:X:X:X:X:X$Xx.> n n d d s s a t t r > > { XX,X,X,X,X,X,X",
",X,X,X,X,X,X5.r t t a s d d n z B.:XC.7 s C V j.@X:X-X:X:X:X'.1 B J H 9 :X:X:X:X:X%Xh.< n N n d d s a t p r r > , U.<X,X,X,X,X,X",
",X,X,X,X,X*Xg r t t a d d d d l I.:X(.9 d C C { _.:X:X:X:X:XI.2 M J H +.:X-X:X:X:X'.=.p m m m n f x s t p r > > ; 4.>X,X,X,X,X,X",
",X,X,X,X,XY.p r t t s s d n n k B.:X%Xn.| i B X._.:X:X:X:X:Xc.u Z L J -.:X:X:X:X:X).0 t m m N z l.Z.l t & @ @ > > ` &X,X,X,X,X,X",
",X,X,X,X,Xl.r t t a s d d n n N x.:X:X%X'.+.N X.`.:X:X:X:X:Xh.u J I Z N.:X:X:X:X$XN.1 d m m V 4.!.g.G.0 X     X # > {.,X,X,X,X,X",
",X,X,X,X<XX.r t a s d d n n m m 8 _.:X:X>X=.s @._.:X:X:X:X:Xq d I I g @X:X:X:X:XOX0 r m C B 2.oXf.W i.G.#.      . @ S.,X,X,X,X,X",
",X,X,X,X+X[ r t s s s d d n m m d +.~.@X-Xw u <.'.:X:X:X:X#X* n L A v.;X:X:X:X@X-.: N M B 1.}.g.t.W W i.#..       O 3.,X,X,X,X,X",
",X,X,X,X{.] t t a s s n n m m B C f ` ;.x.2 f l.$X>X:X:X:X].w } ,.v.OX:X:X:X].h.= d M M 1.}.g.r.W W ! 6 . .     X # } ,X,X,X,X,X",
",X,X,X,XY.l r t s a d d n m m C C C C N p n V n.:X:X:X:X:X$X(.(._.%X-X:X$XC.&., N M Z 1.}.J.r.E W t.4 .   X   X # > j ,X,X,X,X,X",
",X,X,X,XU.h t u a s d n n m N C C Z Z H H K  .P.:X:X:X:X:X(.].$X$X'.(.M.w 8 a M H Z w.R.H.r.T T ! 4 .   X X + % > > : ,X,X,X,X,X",
",X,X,X,XL.g t t a s d d n B B C Z Z Z K K L ..~.:X:X:X:X:Xw 2 = . 1 i s N Z L J L o.R.W.r.R E / 5 + + X X O > r r > & ,X,X,X,X,X",
",X,X,X,XU.g t u a d d n n B B C Z Z Z K K K ,.].:X:X:X:X@X+.C I U U U I I I I L o.T.Q.y.R R ! 6 + X + + @ > r r r > & ,X,X,X,X,X",
",X,X,X,XU.g t a s s d n n m B C C Z Z H K J *.$X:X:X:X:X(.' J q.q.0.9.Y U I I 8.R.Q.p.) R ^ 6 O O O o @ r t t t r > , ,X,X,X,X,X",
",X,X,X,XY.l r t s s d d n m B C Z Z H H J A v.:X:X:X:X:XC.h L q.0.0.9.Y U I 8.R.Q.p.Q R ^ 5 @ O O O # r a t r r r > j ,X,X,X,X,X",
",X,X,X,X|.] t t s s d n n m B M C Z Z J K A N.-X:X:X:X:XV.g I 0.0.9.9.Y Y 7.E.Q.p.Q ) ^ 4 @ O O O % t s a s t r > > } ,X,X,X,X,X",
",X,X,X,X+X[ r u a a d d n n m M C Z Z H K S ~.:X:X:X>X:Xn.k U Y Y Y U I 7.L.!.s.Q ) ^ - @ @ O @ % s d s s t r r > > 2.,X,X,X,X,X",
",X,X,X,X>X,.r t a s d d n n m B M C Z H Z ]  X:X:X:X:X:X;.s U Y Y Y Y 7.D.!.d.Q Q F 5 @ @ @ @ & s d d s a t t r > > S.,X,X,X,X,X",
",X,X,X,X,Xl.p t t s d d n n m B C C Z Z Z | -X:X:X:X:X$X;.d U U U Y P D.oXd._ Q F 5 @ @ @ @ > s d n d a a a r r > < |.,X,X,X,X,X",
",X,X,X,X,XY.i r t u s d n n m m C C Z Z C :.:X:X:X:X:X@X;.N I U I P D.oXd._ Q _ %.4 @ @ @ & a n n d s a t t r r > ' *X,X,X,X,X,X",
",X,X,X,X,X;Xg t t s s d d n n m m C C Z C c.:X:X:X:X:X'.*.N I I P D.oXd._ Q Q Q s.F.| O O @ % t d d d a t t r r > k.:X,X,X,X,X,X",
",X,X,X,X,X,X5.r r t s s d n n n m B C C C u.$X%X`.I.x.e = m L K e.oXd._ Q Q Q Q R s.G.#.O O O # t s s a u t r r , U.,X,X,X,X,X,X",
",X,X,X,X,X,XXXi t t s s d d n n m B C C B 3 q * = y t n B H J K  .e.a.r.Q Q Q R T T D 4 O + + # r s s t t r > > @..X,X,X,X,X,X,X",
",X,X,X,X,X,X,X<.t t t s d d d n n B B C M m n m B M Z H J J J J H A Z.a.Q Q R R / G = O O O @ ; a s a t r r r y z.<X,X,X,X,X,X,X",
",X,X,X,X,X,X,X{.g t t s a d d n n m B B C C C Z Z Z Z H Z H Z H Z w.!.d.R R t.D 5 O O O @ # r a s a a p r r > ' |.,X,X,X,X,X,X,X",
",X,X,X,X,X,X,X;Xk.t u u a s d d n n m B m C C C C Z Z Z Z Z H Z o.R.H.r.R / G $ O O @ @ & a d d a a t t r > < m.<X,X,X,X,X,X,X,X",
",X,X,X,X,X,X,X,X{.] t t a s s d d n n n m m B M C C C Z Z C Z ..R.Q.y.R ^ 5 O O @ O # r d d s s a t r r r > ' ;X,X,X,X,X,X,X,X,X",
",X,X,X,X,X,X,X,X<XA.x t t a s s d d n n m B m B B M M C C C  .T.Q.i.! D - O O O @ ; s d d d a a t t t r > j ).,X,X,X,X,X,X,X,X,X",
",X,X,X,X,X,X,X,X,X&X2.t t t a s s d d d n n n m B B B M B ..Y.!.s.F v O O O @ # r s d d s s s t t t r > y S.,X,X,X,X,X,X,X,X,X,X",
",X,X,X,X,X,X,X,X,X,X+XX.r t t a s s d d n n n n m n B m O.T.!.i.D 1 @ O O @ & t d d s d s a u u r r r y k.*X,X,X,X,X,X,X,X,X,X,X",
",X,X,X,X,X,X,X,X,X,X,X#X[ t t t a s s s d d d n n n n S L.!.i.v & @ + O @ r s d d d s s s u t r r r > 2.&X<X,X,X,X,X,X,X,X,X,X,X",
",X,X,X,X,X,X,X,X,X,X,X,XXX[ r t t a a s s d d d d d z F.!.%.x > @ @ O # r d d d s s a a t t r r > p >.&X,X,X,X,X,X,X,X,X,X,X,X,X",
",X,X,X,X,X,X,X,X,X,X,X,X<X|.,.p r t a u a s s s d k b.R.D i r @ O @ & a s d d s s a t t t r r r y <.&X,X,X,X,X,X,X,X,X,X,X,X,X,X",
",X,X,X,X,X,X,X,X,X,X,X,X,X,XXX5.i r t t t a a a k b.F.{ a r # @ # r u s s s s s a t t r r r > l b.>X,X,X,X,X,X,X,X,X,X,X,X,X,X,X",
",X,X,X,X,X,X,X,X,X,X,X,X,X,X,X*XL.] r t r a a x 5.6.b t r # @ % r a s a s t t t t t r r r r @.Y.>X,X,X,X,X,X,X,X,X,X,X,X,X,X,X,X",
",X,X,X,X,X,X,X,X,X,X,X,X,X,X,X,X<X.X4.x r t p { b u t r & % & t a t s t t t t t r t > r y A.&X<X,X,X,X,X,X,X,X,X,X,X,X,X,X,X,X,X",
",X,X,X,X,X,X,X,X,X,X,X,X,X,X,X,X,X,X,X}.>.x y < r r t > & r t t t t t r t r r r r p g 5.=X,X,X,X,X,X,X,X,X,X,X,X,X,X,X,X,X,X,X,X",
",X,X,X,X,X,X,X,X,X,X,X,X,X,X,X,X,X,X,X,X,X{.k.X.l f r r r t r t r t t r r r x ] @.A..X<X,X,X,X,X,X,X,X,X,X,X,X,X,X,X,X,X,X,X,X,X",
",X,X,X,X,X,X,X,X,X,X,X,X,X,X,X,X,X,X,X,X,X,X,X=X^.A.4.>.{ ] l g h b ] X.<.k.K.^.*X,X,X,X,X,X,X,X,X,X,X,X,X,X,X,X,X,X,X,X,X,X,X,X",
",X,X,X,X,X,X,X,X,X,X,X,X,X,X,X,X,X,X,X,X,X,X,X,X,X,X:X=X.X{././.^.{.|.XX&X;X,X,X,X,X,X,X,X,X,X,X,X,X,X,X,X,X,X,X,X,X,X,X,X,X,X,X",
",X,X,X,X,X,X,X,X,X,X,X,X,X,X,X,X,X,X,X,X,X,X,X<X,X,X,X,X,X,X,X,X,X,X,X,X,X,X,X,X,X,X,X,X,X,X,X,X,X,X,X,X,X,X,X,X,X,X,X,X,X,X,X,X",
",X,X,X,X,X,X,X,X,X,X,X,X,X,X,X,X,X,X,X,X,X,X,X,X,X,X,X,X,X,X,X,X,X,X,X,X,X,X,X,X,X,X,X,X,X,X,X,X,X,X,X,X,X,X,X,X,X,X,X,X,X,X,X,X",
",X,X,X,X,X,X,X,X,X,X,X,X,X,X,X,X,X,X,X,X,X,X,X,X,X,X,X,X,X,X,X,X,X,X,X,X,X,X,X,X,X,X,X,X,X,X,X,X,X,X,X,X,X,X,X,X,X,X,X,X,X,X,X,X",
",X,X,X,X,X,X,X,X,X,X,X,X,X,X,X,X,X,X,X,X,X,X,X,X,X,X,X,X,X,X,X,X,X,X,X,X,X,X,X,X,X,X,X,X,X,X,X,X,X,X,X,X,X,X,X,X,X,X,X,X,X,X,X,X",
",X,X,X,X,X,X,X,X,X,X,X,X,X,X,X,X,X,X,X,X,X,X,X,X,X,X,X,X,X,X,X,X,X,X,X,X,X,X,X,X,X,X,X,X,X,X,X,X,X,X,X,X,X,X,X,X,X,X,X,X,X,X,X,X"
};
